<?xml version="1.0" encoding="UTF-8" standalone="no"?>
<!-- Created with Inkscape (http://www.inkscape.org/) -->

<svg
   xmlns:dc="http://purl.org/dc/elements/1.1/"
   xmlns:cc="http://creativecommons.org/ns#"
   xmlns:rdf="http://www.w3.org/1999/02/22-rdf-syntax-ns#"
   xmlns:svg="http://www.w3.org/2000/svg"
   xmlns="http://www.w3.org/2000/svg"
   version="1.1"
   width="107.00094"
   height="35.025002"
   id="svg3161">
  <defs
     id="defs3163" />
  <metadata
     id="metadata3166">
    <rdf:RDF>
      <cc:Work
         rdf:about="">
        <dc:format>image/svg+xml</dc:format>
        <dc:type
           rdf:resource="http://purl.org/dc/dcmitype/StillImage" />
        <dc:title></dc:title>
      </cc:Work>
    </rdf:RDF>
  </metadata>
  <g
     transform="matrix(0.56828857,0,0,0.56828857,-148.56671,-89.476001)"
     id="layer1">
    <g
       id="g3015">
      <path
         d="m 314.80314,203.67816 -26.68441,-15.41318 26.68441,-15.40958 0,30.82276"
         id="path18"
         style="fill:#78143e;fill-opacity:1;fill-rule:evenodd;stroke:none" />
      <path
         d="m 314.80314,172.8554 26.69521,15.41316 -26.69521,15.4096 0,-30.82276"
         id="path20"
         style="fill:#eb1547;fill-opacity:1;fill-rule:nonzero;stroke:none" />
      <path
         d="m 288.11873,188.26498 -26.69044,-15.40958 26.69044,-15.40722 0,30.8168"
         id="path22"
         style="fill:#f7c41a;fill-opacity:1;fill-rule:evenodd;stroke:none" />
      <path
         d="m 288.11873,219.0806 -26.69044,-15.40244 26.69044,-15.41317 0,30.81561"
         id="path24"
         style="fill:#24527f;fill-opacity:1;fill-rule:evenodd;stroke:none" />
      <path
         d="m 288.11873,157.44818 26.68441,15.40722 -26.68441,15.40958 0,-30.8168"
         id="path26"
         style="fill:#ef3a20;fill-opacity:1;fill-rule:evenodd;stroke:none" />
      <path
         d="m 288.11873,188.26498 26.68441,15.41318 -26.68441,15.40244 0,-30.81562"
         id="path28"
         style="fill:#73cfc6;fill-opacity:1;fill-rule:evenodd;stroke:none" />
    </g>
    <g
       transform="matrix(0.48507987,0,0,0.48507987,177.37673,93.969311)"
       id="g3007"
       style="fill:#999999">
      <path
         d="m 390.50512,194.5451 9.94665,3.16029 c -1.52483,5.55346 -4.06205,9.67746 -7.61188,12.37318 -3.54983,2.69692 -8.05269,4.04419 -13.52033,4.04419 -6.75421,0 -12.30527,-2.30859 -16.66514,-6.92575 -4.34794,-4.61597 -6.52787,-10.92465 -6.52787,-18.93202 0,-8.46717 2.19187,-15.04508 6.5755,-19.73134 4.3718,-4.68505 10.11339,-7.02817 17.24885,-7.02817 6.21811,0 11.28084,1.83805 15.15225,5.51891 2.32293,2.17516 4.06204,5.29853 5.21755,9.36892 l -10.17297,2.43127 c -0.60758,-2.63734 -1.85834,-4.72078 -3.76422,-6.24912 -1.91791,-1.52595 -4.22891,-2.28952 -6.95676,-2.28952 -3.77615,0 -6.83763,1.35322 -9.18433,4.06086 -2.34669,2.70764 -3.51403,7.09251 -3.51403,13.15701 0,6.43018 1.14357,11.01161 3.4664,13.74189 2.311,2.73027 5.32474,4.09659 9.0295,4.09659 2.72785,0 5.07455,-0.8684 7.04009,-2.604 1.96544,-1.73561 3.37114,-4.46469 4.24074,-8.19319"
         id="path30"
         style="fill:#999999;fill-opacity:1;fill-rule:nonzero;stroke:none" />
      <path
         d="m 406.36022,213.25436 0,-36.86105 9.75601,0 0,36.86105 -9.75601,0 z m 0,-41.8582 0,-9.02468 9.75601,0 0,9.02468 -9.75601,0"
         id="path32"
         style="fill:#999999;fill-opacity:1;fill-rule:nonzero;stroke:none" />
      <path
         d="m 432.60267,213.25436 -9.75601,0 0,-36.86105 9.05327,0 0,5.24137 c 1.56052,-2.47536 2.95417,-4.10614 4.18117,-4.89473 1.25077,-0.78262 2.65635,-1.17811 4.22881,-1.17811 2.21563,0 4.35987,0.61229 6.40875,1.83924 l -3.00192,8.50411 c -1.65579,-1.06495 -3.1805,-1.59742 -4.5862,-1.59742 -1.35796,0 -2.52529,0.37641 -3.46639,1.12808 -0.95294,0.75166 -1.70342,2.11084 -2.23951,4.07992 -0.55984,1.9667 -0.82197,6.08354 -0.82197,12.35531 l 0,11.38328"
         id="path34"
         style="fill:#999999;fill-opacity:1;fill-rule:nonzero;stroke:none" />
      <path
         d="m 455.81955,194.82384 c 0,3.65584 0.88154,6.45639 2.60882,8.40046 1.73911,1.94289 3.88335,2.91491 6.42057,2.91491 2.54926,0 4.68157,-0.97202 6.40885,-2.91491 1.71534,-1.94407 2.58485,-4.76606 2.58485,-8.46956 0,-3.60939 -0.86951,-6.38612 -2.58485,-8.33019 -1.72728,-1.94406 -3.85959,-2.91371 -6.40885,-2.91371 -2.53722,0 -4.68145,0.96965 -6.42057,2.91371 -1.72729,1.94407 -2.60882,4.74582 -2.60882,8.39929 z m -9.99427,-0.51937 c 0,-3.24012 0.80994,-6.37302 2.40626,-9.40586 1.58428,-3.03046 3.84755,-5.34737 6.77796,-6.94242 2.91848,-1.59742 6.19435,-2.39435 9.80375,-2.39435 5.57493,0 10.14919,1.81185 13.71096,5.43315 3.56165,3.61892 5.34851,8.19557 5.34851,13.72641 0,5.57608 -1.81062,10.19682 -5.40808,13.86578 -3.58562,3.66655 -8.12409,5.50103 -13.57989,5.50103 -3.38307,0 -6.59938,-0.76358 -9.66085,-2.2931 -3.07331,-1.52357 -5.40807,-3.76543 -6.99236,-6.71608 -1.59632,-2.94945 -2.40626,-6.53978 -2.40626,-10.77456"
         id="path36"
         style="fill:#999999;fill-opacity:1;fill-rule:nonzero;stroke:none" />
      <path
         d="m 498.03632,194.20083 c 0,4.14068 0.82198,7.2021 2.46583,9.17953 1.63191,1.97861 3.63316,2.96732 6.00372,2.96732 2.26337,0 4.14548,-0.90771 5.65827,-2.72432 1.50095,-1.81542 2.25143,-4.79465 2.25143,-8.9377 0,-3.86194 -0.77434,-6.73515 -2.32294,-8.60775 -1.54847,-1.87259 -3.46639,-2.81127 -5.76545,-2.81127 -2.3824,0 -4.35987,0.92081 -5.93222,2.75886 -1.57246,1.84044 -2.35864,4.56475 -2.35864,8.17533 z m -9.64891,-17.80752 9.08907,0 0,5.41409 c 1.17926,-1.84758 2.78741,-3.35328 4.80058,-4.51115 2.00125,-1.15548 4.24075,-1.73441 6.68271,-1.73441 4.28837,0 7.92163,1.67724 10.89967,5.03171 2.98999,3.35923 4.49083,8.03118 4.49083,14.02301 0,6.15384 -1.51278,10.93896 -4.51469,14.3518 -3.01375,3.41403 -6.65884,5.11985 -10.94731,5.11985 -2.02501,0 -3.87142,-0.40501 -5.5272,-1.21624 -1.65578,-0.80883 -3.395,-2.1954 -5.21755,-4.16449 l 0,18.5687 -9.75611,0 0,-50.88287"
         id="path38"
         style="fill:#999999;fill-opacity:1;fill-rule:nonzero;stroke:none" />
      <path
         d="m 551.7364,191.66591 c -0.0716,-2.82199 -0.79812,-4.96976 -2.19177,-6.43853 -1.38183,-1.46757 -3.06148,-2.20375 -5.06272,-2.20375 -2.12037,0 -3.88335,0.77429 -5.27711,2.32526 -1.38183,1.55215 -2.0608,3.65585 -2.04887,6.31702 l 14.58047,0 z m -0.55986,9.85614 9.73225,1.63317 c -1.26269,3.56412 -3.22824,6.27771 -5.93222,8.13601 -2.69216,1.86426 -6.06329,2.79698 -10.10157,2.79698 -6.42068,0 -11.16171,-2.09296 -14.24694,-6.28129 -2.4182,-3.35685 -3.63326,-7.59045 -3.63326,-12.70672 0,-6.10738 1.59621,-10.88773 4.78876,-14.35061 3.19244,-3.45691 7.23062,-5.18775 12.11463,-5.18775 5.47957,0 9.80375,1.81185 12.98425,5.43315 3.15674,3.61892 4.66963,9.16762 4.53857,16.64251 l -24.43184,0 c 0.0717,2.89109 0.85767,5.14129 2.35863,6.74943 1.50085,1.60934 3.37113,2.41342 5.62247,2.41342 1.52482,0 2.81127,-0.41812 3.85958,-1.25079 1.03637,-0.83385 1.82255,-2.17516 2.34669,-4.02751"
         id="path40"
         style="fill:#999999;fill-opacity:1;fill-rule:nonzero;stroke:none" />
    </g>
  </g>
</svg>
